<svg viewBox="0 0 235 150" xmlns="http://www.w3.org/2000/svg" width="235.000000" height="150.000000" fill="none">
    <rect id="Forma Studio" width="235.000000" height="150.000000" x="0.000000" y="0.000000" fill="rgb(255,255,255)"
          fill-opacity="0"/>
    <path id="Forma Studio"
          d="M12.4688 13.875L12.4688 59.375L4.625 59.375L4.625 13.875L12.4688 13.875ZM31.0312 33.7812L31.0312 40L10.4688 40L10.4688 33.7812L31.0312 33.7812ZM33.625 13.875L33.625 20.125L10.4688 20.125L10.4688 13.875L33.625 13.875ZM76.1562 35.375L76.1562 37.875C76.1562 41.3125 75.7083 44.3958 74.8125 47.125C73.9167 49.8542 72.6354 52.1771 70.9688 54.0938C69.3229 56.0104 67.3438 57.4792 65.0312 58.5C62.7188 59.5 60.1562 60 57.3438 60C54.5521 60 52 59.5 49.6875 58.5C47.3958 57.4792 45.4062 56.0104 43.7188 54.0938C42.0312 52.1771 40.7188 49.8542 39.7812 47.125C38.8646 44.3958 38.4062 41.3125 38.4062 37.875L38.4062 35.375C38.4062 31.9375 38.8646 28.8646 39.7812 26.1562C40.6979 23.4271 41.9896 21.1042 43.6562 19.1875C45.3438 17.25 47.3333 15.7812 49.625 14.7812C51.9375 13.7604 54.4896 13.25 57.2812 13.25C60.0938 13.25 62.6562 13.7604 64.9688 14.7812C67.2812 15.7812 69.2708 17.25 70.9375 19.1875C72.6042 21.1042 73.8854 23.4271 74.7812 26.1562C75.6979 28.8646 76.1562 31.9375 76.1562 35.375ZM68.3125 37.875L68.3125 35.3125C68.3125 32.7708 68.0625 30.5312 67.5625 28.5938C67.0833 26.6354 66.3646 25 65.4062 23.6875C64.4688 22.3542 63.3125 21.3542 61.9375 20.6875C60.5625 20 59.0104 19.6562 57.2812 19.6562C55.5521 19.6562 54.0104 20 52.6562 20.6875C51.3021 21.3542 50.1458 22.3542 49.1875 23.6875C48.25 25 47.5312 26.6354 47.0312 28.5938C46.5312 30.5312 46.2812 32.7708 46.2812 35.3125L46.2812 37.875C46.2812 40.4167 46.5312 42.6667 47.0312 44.625C47.5312 46.5833 48.2604 48.2396 49.2188 49.5938C50.1979 50.9271 51.3646 51.9375 52.7188 52.625C54.0729 53.2917 55.6146 53.625 57.3438 53.625C59.0938 53.625 60.6458 53.2917 62 52.625C63.3542 51.9375 64.5 50.9271 65.4375 49.5938C66.375 48.2396 67.0833 46.5833 67.5625 44.625C68.0625 42.6667 68.3125 40.4167 68.3125 37.875ZM84 13.875L100.094 13.875C103.552 13.875 106.5 14.3958 108.938 15.4375C111.375 16.4792 113.24 18.0208 114.531 20.0625C115.844 22.0833 116.5 24.5833 116.5 27.5625C116.5 29.8333 116.083 31.8333 115.25 33.5625C114.417 35.2917 113.24 36.75 111.719 37.9375C110.198 39.1042 108.385 40.0104 106.281 40.6562L103.906 41.8125L89.4375 41.8125L89.375 35.5938L100.219 35.5938C102.094 35.5938 103.656 35.2604 104.906 34.5938C106.156 33.9271 107.094 33.0208 107.719 31.875C108.365 30.7083 108.688 29.3958 108.688 27.9375C108.688 26.3542 108.375 24.9792 107.75 23.8125C107.146 22.625 106.208 21.7188 104.938 21.0938C103.667 20.4479 102.052 20.125 100.094 20.125L91.8438 20.125L91.8438 59.375L84 59.375L84 13.875ZM109.969 59.375L99.2812 38.9375L107.5 38.9062L118.344 58.9688L118.344 59.375L109.969 59.375ZM127.5 13.875L134.5 13.875L147.656 48.9688L160.781 13.875L167.781 13.875L150.406 59.375L144.844 59.375L127.5 13.875ZM124.312 13.875L130.969 13.875L132.125 44.25L132.125 59.375L124.312 59.375L124.312 13.875ZM164.312 13.875L171 13.875L171 59.375L163.156 59.375L163.156 44.25L164.312 13.875ZM198.594 19.9375L185 59.375L176.781 59.375L193.906 13.875L199.156 13.875L198.594 19.9375ZM209.969 59.375L196.344 19.9375L195.75 13.875L201.031 13.875L218.219 59.375L209.969 59.375ZM209.312 42.5L209.312 48.7188L184.562 48.7188L184.562 42.5L209.312 42.5ZM28.5625 122.656C28.5625 121.719 28.4167 120.885 28.125 120.156C27.8542 119.427 27.3646 118.76 26.6562 118.156C25.9479 117.552 24.9479 116.969 23.6562 116.406C22.3854 115.823 20.7604 115.229 18.7812 114.625C16.6146 113.958 14.6146 113.219 12.7812 112.406C10.9688 111.573 9.38542 110.615 8.03125 109.531C6.67708 108.427 5.625 107.167 4.875 105.75C4.125 104.312 3.75 102.656 3.75 100.781C3.75 98.9271 4.13542 97.2396 4.90625 95.7188C5.69792 94.1979 6.8125 92.8854 8.25 91.7812C9.70833 90.6562 11.4271 89.7917 13.4062 89.1875C15.3854 88.5625 17.5729 88.25 19.9688 88.25C23.3438 88.25 26.25 88.875 28.6875 90.125C31.1458 91.375 33.0312 93.0521 34.3438 95.1562C35.6771 97.2604 36.3438 99.5833 36.3438 102.125L28.5625 102.125C28.5625 100.625 28.2396 99.3021 27.5938 98.1562C26.9688 96.9896 26.0104 96.0729 24.7188 95.4062C23.4479 94.7396 21.8333 94.4062 19.875 94.4062C18.0208 94.4062 16.4792 94.6875 15.25 95.25C14.0208 95.8125 13.1042 96.5729 12.5 97.5312C11.8958 98.4896 11.5938 99.5729 11.5938 100.781C11.5938 101.635 11.7917 102.417 12.1875 103.125C12.5833 103.812 13.1875 104.458 14 105.062C14.8125 105.646 15.8333 106.198 17.0625 106.719C18.2917 107.24 19.7396 107.74 21.4062 108.219C23.9271 108.969 26.125 109.802 28 110.719C29.875 111.615 31.4375 112.635 32.6875 113.781C33.9375 114.927 34.875 116.229 35.5 117.688C36.125 119.125 36.4375 120.76 36.4375 122.594C36.4375 124.51 36.0521 126.24 35.2812 127.781C34.5104 129.302 33.4062 130.604 31.9688 131.688C30.5521 132.75 28.8438 133.573 26.8438 134.156C24.8646 134.719 22.6562 135 20.2188 135C18.0312 135 15.875 134.708 13.75 134.125C11.6458 133.542 9.72917 132.656 8 131.469C6.27083 130.26 4.89583 128.76 3.875 126.969C2.85417 125.156 2.34375 123.042 2.34375 120.625L10.1875 120.625C10.1875 122.104 10.4375 123.365 10.9375 124.406C11.4583 125.448 12.1771 126.302 13.0938 126.969C14.0104 127.615 15.0729 128.094 16.2812 128.406C17.5104 128.719 18.8229 128.875 20.2188 128.875C22.0521 128.875 23.5833 128.615 24.8125 128.094C26.0625 127.573 27 126.844 27.625 125.906C28.25 124.969 28.5625 123.885 28.5625 122.656ZM62.0938 88.875L62.0938 134.375L54.3125 134.375L54.3125 88.875L62.0938 88.875ZM76.375 88.875L76.375 95.125L40.1562 95.125L40.1562 88.875L76.375 88.875ZM107.906 88.875L115.719 88.875L115.719 119.281C115.719 122.74 114.969 125.635 113.469 127.969C111.969 130.302 109.927 132.062 107.344 133.25C104.781 134.417 101.917 135 98.75 135C95.4792 135 92.5625 134.417 90 133.25C87.4375 132.062 85.4167 130.302 83.9375 127.969C82.4792 125.635 81.75 122.74 81.75 119.281L81.75 88.875L89.5625 88.875L89.5625 119.281C89.5625 121.469 89.9375 123.271 90.6875 124.688C91.4375 126.083 92.5 127.115 93.875 127.781C95.25 128.448 96.875 128.781 98.75 128.781C100.625 128.781 102.24 128.448 103.594 127.781C104.969 127.115 106.031 126.083 106.781 124.688C107.531 123.271 107.906 121.469 107.906 119.281L107.906 88.875ZM137.469 134.375L127.75 134.375L127.812 128.156L137.469 128.156C140.281 128.156 142.635 127.542 144.531 126.312C146.448 125.083 147.885 123.323 148.844 121.031C149.823 118.74 150.312 116.01 150.312 112.844L150.312 110.375C150.312 107.917 150.031 105.74 149.469 103.844C148.927 101.948 148.115 100.354 147.031 99.0625C145.969 97.7708 144.656 96.7917 143.094 96.125C141.552 95.4583 139.771 95.125 137.75 95.125L127.562 95.125L127.562 88.875L137.75 88.875C140.771 88.875 143.531 89.3854 146.031 90.4062C148.531 91.4062 150.688 92.8542 152.5 94.75C154.333 96.6458 155.74 98.9167 156.719 101.562C157.698 104.208 158.188 107.167 158.188 110.438L158.188 112.844C158.188 116.115 157.698 119.073 156.719 121.719C155.74 124.365 154.333 126.635 152.5 128.531C150.667 130.406 148.479 131.854 145.938 132.875C143.417 133.875 140.594 134.375 137.469 134.375ZM132.094 88.875L132.094 134.375L124.25 134.375L124.25 88.875L132.094 88.875ZM174.438 88.875L174.438 134.375L166.594 134.375L166.594 88.875L174.438 88.875ZM220.469 110.375L220.469 112.875C220.469 116.312 220.021 119.396 219.125 122.125C218.229 124.854 216.948 127.177 215.281 129.094C213.635 131.01 211.656 132.479 209.344 133.5C207.031 134.5 204.469 135 201.656 135C198.865 135 196.312 134.5 194 133.5C191.708 132.479 189.719 131.01 188.031 129.094C186.344 127.177 185.031 124.854 184.094 122.125C183.177 119.396 182.719 116.312 182.719 112.875L182.719 110.375C182.719 106.938 183.177 103.865 184.094 101.156C185.01 98.4271 186.302 96.1042 187.969 94.1875C189.656 92.25 191.646 90.7812 193.938 89.7812C196.25 88.7604 198.802 88.25 201.594 88.25C204.406 88.25 206.969 88.7604 209.281 89.7812C211.594 90.7812 213.583 92.25 215.25 94.1875C216.917 96.1042 218.198 98.4271 219.094 101.156C220.01 103.865 220.469 106.938 220.469 110.375ZM212.625 112.875L212.625 110.312C212.625 107.771 212.375 105.531 211.875 103.594C211.396 101.635 210.677 100 209.719 98.6875C208.781 97.3542 207.625 96.3542 206.25 95.6875C204.875 95 203.323 94.6562 201.594 94.6562C199.865 94.6562 198.323 95 196.969 95.6875C195.615 96.3542 194.458 97.3542 193.5 98.6875C192.562 100 191.844 101.635 191.344 103.594C190.844 105.531 190.594 107.771 190.594 110.312L190.594 112.875C190.594 115.417 190.844 117.667 191.344 119.625C191.844 121.583 192.573 123.24 193.531 124.594C194.51 125.927 195.677 126.938 197.031 127.625C198.385 128.292 199.927 128.625 201.656 128.625C203.406 128.625 204.958 128.292 206.312 127.625C207.667 126.938 208.812 125.927 209.75 124.594C210.688 123.24 211.396 121.583 211.875 119.625C212.375 117.667 212.625 115.417 212.625 112.875Z"
          fill="rgb(245,245,245)" fill-rule="nonzero"/>
</svg>
