<svg viewBox="0 0 144 23" xmlns="http://www.w3.org/2000/svg" xmlns:xlink="http://www.w3.org/1999/xlink" width="144.000000" height="23.000000" fill="none" customFrame="#000000">
	<path id="Forma Studio" d="M3.89648 4.11719L3.89648 18.3359L1.44531 18.3359L1.44531 4.11719L3.89648 4.11719ZM9.69727 10.3379L9.69727 12.2812L3.27148 12.2812L3.27148 10.3379L9.69727 10.3379ZM10.5078 4.11719L10.5078 6.07031L3.27148 6.07031L3.27148 4.11719L10.5078 4.11719ZM23.7988 10.8359L23.7988 11.6172C23.7988 12.6914 23.6589 13.6549 23.3789 14.5078C23.099 15.3607 22.6986 16.0866 22.1777 16.6855C21.6634 17.2845 21.0449 17.7435 20.3223 18.0625C19.5996 18.375 18.7988 18.5312 17.9199 18.5312C17.0475 18.5312 16.25 18.375 15.5273 18.0625C14.8112 17.7435 14.1895 17.2845 13.6621 16.6855C13.1348 16.0866 12.7246 15.3607 12.4316 14.5078C12.1452 13.6549 12.002 12.6914 12.002 11.6172L12.002 10.8359C12.002 9.76172 12.1452 8.80143 12.4316 7.95508C12.7181 7.10221 13.1217 6.3763 13.6426 5.77734C14.1699 5.17188 14.7917 4.71289 15.5078 4.40039C16.2305 4.08138 17.028 3.92188 17.9004 3.92188C18.7793 3.92188 19.5801 4.08138 20.3027 4.40039C21.0254 4.71289 21.6471 5.17188 22.168 5.77734C22.6888 6.3763 23.0892 7.10221 23.3691 7.95508C23.6556 8.80143 23.7988 9.76172 23.7988 10.8359ZM21.3477 11.6172L21.3477 10.8164C21.3477 10.0221 21.2695 9.32227 21.1133 8.7168C20.9635 8.10482 20.7389 7.59375 20.4395 7.18359C20.1465 6.76693 19.7852 6.45443 19.3555 6.24609C18.9258 6.03125 18.4408 5.92383 17.9004 5.92383C17.36 5.92383 16.8783 6.03125 16.4551 6.24609C16.0319 6.45443 15.6706 6.76693 15.3711 7.18359C15.0781 7.59375 14.8535 8.10482 14.6973 8.7168C14.541 9.32227 14.4629 10.0221 14.4629 10.8164L14.4629 11.6172C14.4629 12.4115 14.541 13.1146 14.6973 13.7266C14.8535 14.3385 15.0814 14.8561 15.3809 15.2793C15.6868 15.696 16.0514 16.0117 16.4746 16.2266C16.8978 16.4349 17.3796 16.5391 17.9199 16.5391C18.4668 16.5391 18.9518 16.4349 19.375 16.2266C19.7982 16.0117 20.1562 15.696 20.4492 15.2793C20.7422 14.8561 20.9635 14.3385 21.1133 13.7266C21.2695 13.1146 21.3477 12.4115 21.3477 11.6172ZM26.25 4.11719L31.2793 4.11719C32.36 4.11719 33.2812 4.27995 34.043 4.60547C34.8047 4.93099 35.3874 5.41276 35.791 6.05078C36.2012 6.68229 36.4062 7.46354 36.4062 8.39453C36.4062 9.10417 36.276 9.72917 36.0156 10.2695C35.7552 10.8099 35.3874 11.2656 34.9121 11.6367C34.4368 12.0013 33.8704 12.2845 33.2129 12.4863L32.4707 12.8477L27.9492 12.8477L27.9297 10.9043L31.3184 10.9043C31.9043 10.9043 32.3926 10.8001 32.7832 10.5918C33.1738 10.3835 33.4668 10.1003 33.6621 9.74219C33.8639 9.3776 33.9648 8.96745 33.9648 8.51172C33.9648 8.01693 33.8672 7.58724 33.6719 7.22266C33.4831 6.85156 33.1901 6.56836 32.793 6.37305C32.3958 6.17122 31.8913 6.07031 31.2793 6.07031L28.7012 6.07031L28.7012 18.3359L26.25 18.3359L26.25 4.11719ZM34.3652 18.3359L31.0254 11.9492L33.5938 11.9395L36.9824 18.209L36.9824 18.3359L34.3652 18.3359ZM39.8438 4.11719L42.0312 4.11719L46.1426 15.084L50.2441 4.11719L52.4316 4.11719L47.002 18.3359L45.2637 18.3359L39.8438 4.11719ZM38.8477 4.11719L40.9277 4.11719L41.2891 13.6094L41.2891 18.3359L38.8477 18.3359L38.8477 4.11719ZM51.3477 4.11719L53.4375 4.11719L53.4375 18.3359L50.9863 18.3359L50.9863 13.6094L51.3477 4.11719ZM62.0605 6.01172L57.8125 18.3359L55.2441 18.3359L60.5957 4.11719L62.2363 4.11719L62.0605 6.01172ZM65.6152 18.3359L61.3574 6.01172L61.1719 4.11719L62.8223 4.11719L68.1934 18.3359L65.6152 18.3359ZM65.4102 13.0625L65.4102 15.0059L57.6758 15.0059L57.6758 13.0625L65.4102 13.0625ZM82.2461 14.6738C82.2461 14.3809 82.2005 14.1204 82.1094 13.8926C82.0247 13.6647 81.8717 13.4564 81.6504 13.2676C81.429 13.0788 81.1165 12.8965 80.7129 12.7207C80.3158 12.5384 79.8079 12.3529 79.1895 12.1641C78.5124 11.9557 77.8874 11.7246 77.3145 11.4707C76.748 11.2103 76.2533 10.9108 75.8301 10.5723C75.4069 10.2272 75.0781 9.83333 74.8438 9.39062C74.6094 8.94141 74.4922 8.42383 74.4922 7.83789C74.4922 7.25846 74.6126 6.73112 74.8535 6.25586C75.1009 5.7806 75.4492 5.37044 75.8984 5.02539C76.3542 4.67383 76.8913 4.40365 77.5098 4.21484C78.1283 4.01953 78.8119 3.92188 79.5605 3.92188C80.6152 3.92188 81.5234 4.11719 82.2852 4.50781C83.0534 4.89844 83.6426 5.42253 84.0527 6.08008C84.4694 6.73763 84.6777 7.46354 84.6777 8.25781L82.2461 8.25781C82.2461 7.78906 82.1452 7.37565 81.9434 7.01758C81.748 6.65299 81.4486 6.36654 81.0449 6.1582C80.6478 5.94987 80.1432 5.8457 79.5312 5.8457C78.9518 5.8457 78.4701 5.93359 78.0859 6.10938C77.7018 6.28516 77.4154 6.52279 77.2266 6.82227C77.0378 7.12174 76.9434 7.46029 76.9434 7.83789C76.9434 8.10482 77.0052 8.34896 77.1289 8.57031C77.2526 8.78516 77.4414 8.98698 77.6953 9.17578C77.9492 9.35807 78.2682 9.5306 78.6523 9.69336C79.0365 9.85612 79.4889 10.0124 80.0098 10.1621C80.7975 10.3965 81.4844 10.6569 82.0703 10.9434C82.6562 11.2233 83.1445 11.5423 83.5352 11.9004C83.9258 12.2585 84.2188 12.6654 84.4141 13.1211C84.6094 13.5703 84.707 14.0814 84.707 14.6543C84.707 15.2533 84.5866 15.7936 84.3457 16.2754C84.1048 16.7507 83.7598 17.1576 83.3105 17.4961C82.8678 17.8281 82.334 18.0853 81.709 18.2676C81.0905 18.4434 80.4004 18.5312 79.6387 18.5312C78.9551 18.5312 78.2812 18.4401 77.6172 18.2578C76.9596 18.0755 76.3607 17.7988 75.8203 17.4277C75.2799 17.0501 74.8503 16.5814 74.5312 16.0215C74.2122 15.4551 74.0527 14.7943 74.0527 14.0391L76.5039 14.0391C76.5039 14.5013 76.582 14.8952 76.7383 15.2207C76.901 15.5462 77.1256 15.8132 77.4121 16.0215C77.6986 16.2233 78.0306 16.373 78.4082 16.4707C78.7923 16.5684 79.2025 16.6172 79.6387 16.6172C80.2116 16.6172 80.6901 16.5358 81.0742 16.373C81.4648 16.2103 81.7578 15.9824 81.9531 15.6895C82.1484 15.3965 82.2461 15.0579 82.2461 14.6738ZM92.7246 4.11719L92.7246 18.3359L90.293 18.3359L90.293 4.11719L92.7246 4.11719ZM97.1875 4.11719L97.1875 6.07031L85.8691 6.07031L85.8691 4.11719L97.1875 4.11719ZM107.041 4.11719L109.482 4.11719L109.482 13.6191C109.482 14.6999 109.248 15.6048 108.779 16.334C108.311 17.0632 107.673 17.6133 106.865 17.9844C106.064 18.349 105.169 18.5312 104.18 18.5312C103.158 18.5312 102.246 18.349 101.445 17.9844C100.645 17.6133 100.013 17.0632 99.5508 16.334C99.0951 15.6048 98.8672 14.6999 98.8672 13.6191L98.8672 4.11719L101.309 4.11719L101.309 13.6191C101.309 14.3027 101.426 14.8659 101.66 15.3086C101.895 15.7448 102.227 16.0671 102.656 16.2754C103.086 16.4837 103.594 16.5879 104.18 16.5879C104.766 16.5879 105.27 16.4837 105.693 16.2754C106.123 16.0671 106.455 15.7448 106.689 15.3086C106.924 14.8659 107.041 14.3027 107.041 13.6191L107.041 4.11719ZM116.279 18.3359L113.242 18.3359L113.262 16.3926L116.279 16.3926C117.158 16.3926 117.894 16.2005 118.486 15.8164C119.085 15.4323 119.535 14.8822 119.834 14.166C120.14 13.4499 120.293 12.597 120.293 11.6074L120.293 10.8359C120.293 10.0677 120.205 9.38737 120.029 8.79492C119.86 8.20247 119.606 7.70443 119.268 7.30078C118.936 6.89713 118.525 6.59115 118.037 6.38281C117.555 6.17448 116.999 6.07031 116.367 6.07031L113.184 6.07031L113.184 4.11719L116.367 4.11719C117.311 4.11719 118.174 4.27669 118.955 4.5957C119.736 4.9082 120.41 5.36068 120.977 5.95312C121.549 6.54557 121.989 7.25521 122.295 8.08203C122.601 8.90885 122.754 9.83333 122.754 10.8555L122.754 11.6074C122.754 12.6296 122.601 13.554 122.295 14.3809C121.989 15.2077 121.549 15.9173 120.977 16.5098C120.404 17.0957 119.72 17.5482 118.926 17.8672C118.138 18.1797 117.256 18.3359 116.279 18.3359ZM114.6 4.11719L114.6 18.3359L112.148 18.3359L112.148 4.11719L114.6 4.11719ZM127.832 4.11719L127.832 18.3359L125.381 18.3359L125.381 4.11719L127.832 4.11719ZM142.217 10.8359L142.217 11.6172C142.217 12.6914 142.077 13.6549 141.797 14.5078C141.517 15.3607 141.117 16.0866 140.596 16.6855C140.081 17.2845 139.463 17.7435 138.74 18.0625C138.018 18.375 137.217 18.5312 136.338 18.5312C135.465 18.5312 134.668 18.375 133.945 18.0625C133.229 17.7435 132.607 17.2845 132.08 16.6855C131.553 16.0866 131.143 15.3607 130.85 14.5078C130.563 13.6549 130.42 12.6914 130.42 11.6172L130.42 10.8359C130.42 9.76172 130.563 8.80143 130.85 7.95508C131.136 7.10221 131.54 6.3763 132.061 5.77734C132.588 5.17188 133.21 4.71289 133.926 4.40039C134.648 4.08138 135.446 3.92188 136.318 3.92188C137.197 3.92188 137.998 4.08138 138.721 4.40039C139.443 4.71289 140.065 5.17188 140.586 5.77734C141.107 6.3763 141.507 7.10221 141.787 7.95508C142.074 8.80143 142.217 9.76172 142.217 10.8359ZM139.766 11.6172L139.766 10.8164C139.766 10.0221 139.688 9.32227 139.531 8.7168C139.382 8.10482 139.157 7.59375 138.857 7.18359C138.564 6.76693 138.203 6.45443 137.773 6.24609C137.344 6.03125 136.859 5.92383 136.318 5.92383C135.778 5.92383 135.296 6.03125 134.873 6.24609C134.45 6.45443 134.089 6.76693 133.789 7.18359C133.496 7.59375 133.271 8.10482 133.115 8.7168C132.959 9.32227 132.881 10.0221 132.881 10.8164L132.881 11.6172C132.881 12.4115 132.959 13.1146 133.115 13.7266C133.271 14.3385 133.499 14.8561 133.799 15.2793C134.105 15.696 134.469 16.0117 134.893 16.2266C135.316 16.4349 135.798 16.5391 136.338 16.5391C136.885 16.5391 137.37 16.4349 137.793 16.2266C138.216 16.0117 138.574 15.696 138.867 15.2793C139.16 14.8561 139.382 14.3385 139.531 13.7266C139.688 13.1146 139.766 12.4115 139.766 11.6172Z" fill="rgb(245,245,245)" fill-rule="nonzero" />
</svg>
