<svg viewBox="0 0 10 10" xmlns="http://www.w3.org/2000/svg" xmlns:xlink="http://www.w3.org/1999/xlink" width="10.000000" height="10.000000" fill="none">
	<rect id="copyright-symbol_icon-icons.com_70218 1" width="10.000000" height="10.000000" x="0.000000" y="0.000000" fill="rgb(255,255,255)" fill-opacity="0" />
	<path id="Vector" d="M5 0.9375C7.25 0.9375 9.0625 2.75 9.0625 5C9.0625 7.25 7.25 9.0625 5 9.0625C2.75 9.0625 0.9375 7.25 0.9375 5C0.9375 2.75 2.75 0.9375 5 0.9375ZM5 0C2.25 0 0 2.25 0 5C0 7.75 2.25 10 5 10C7.75 10 10 7.75 10 5C10 2.25 7.75 0 5 0Z" fill="rgb(245,245,245)" fill-rule="nonzero" />
	<path id="Vector" d="M6.1875 6.4375C5.875 6.6875 5.4375 6.875 5 6.875C3.9375 6.875 3.125 6.0625 3.125 5C3.125 3.9375 3.9375 3.125 5 3.125C5.5 3.125 6 3.3125 6.3125 3.6875L7 3C6.5 2.5 5.75 2.1875 5 2.1875C3.4375 2.1875 2.1875 3.4375 2.1875 5C2.1875 6.5625 3.4375 7.8125 5 7.8125C5.6875 7.8125 6.25 7.5625 6.75 7.1875L6.1875 6.4375Z" fill="rgb(245,245,245)" fill-rule="nonzero" />
</svg>
