<svg viewBox="0 0 15 15" xmlns="http://www.w3.org/2000/svg" xmlns:xlink="http://www.w3.org/1999/xlink" width="15.000000" height="15.000000" fill="none">
	<rect id="email" width="15.000000" height="15.000000" x="0.000000" y="0.000000" fill="rgb(255,255,255)" fill-opacity="0" />
	<path id="Vector" d="M8.75358 9.19017C8.3804 9.43896 7.94692 9.57047 7.5 9.57047C7.05311 9.57047 6.61963 9.43896 6.24645 9.19017L0.099873 5.09232C0.0657715 5.06959 0.0325488 5.04589 0 5.02151L0 11.7363C0 12.5061 0.624756 13.1171 1.38085 13.1171L13.6191 13.1171C14.389 13.1171 15 12.4924 15 11.7363L15 5.02148C14.9674 5.04592 14.9341 5.06968 14.8999 5.09244L8.75358 9.19017Z" fill="rgb(245,245,245)" fill-rule="evenodd" />
	<path id="Vector" d="M0.587402 4.36109L6.73397 8.45897C6.96665 8.61409 7.23331 8.69164 7.49997 8.69164C7.76666 8.69164 8.03335 8.61407 8.26603 8.45897L14.4126 4.36109C14.7804 4.11603 15 3.70587 15 3.26319C15 2.50203 14.3808 1.88281 13.6196 1.88281L1.38038 1.88281C0.619248 1.88284 0 2.50206 0 3.26393C0 3.70587 0.219609 4.11603 0.587402 4.36109Z" fill="rgb(245,245,245)" fill-rule="evenodd" />
</svg>
