<svg viewBox="0 0 15 15" xmlns="http://www.w3.org/2000/svg" xmlns:xlink="http://www.w3.org/1999/xlink" width="15.000000" height="15.000000" fill="none" customFrame="#000000">
	<rect id="Facebook_white" width="15.000000" height="15.000000" x="0.000000" y="0.000000" />
	<g id="Facebook">
		<path id="Combined-Shape" d="M7.5 0C3.35786 0 0 3.35786 0 7.5C0 11.6421 3.35786 15 7.5 15C11.6421 15 15 11.6421 15 7.5C15 3.35786 11.6421 0 7.5 0ZM8.28174 7.82944L8.28174 11.9098L6.59346 11.9098L6.59346 7.8296L5.75 7.8296L5.75 6.42347L6.59346 6.42347L6.59346 5.57924C6.59346 4.43212 7.06973 3.75 8.42287 3.75L9.5494 3.75L9.5494 5.15629L8.84524 5.15629C8.31849 5.15629 8.28365 5.35279 8.28365 5.71953L8.28174 6.42331L9.55737 6.42331L9.4081 7.82944L8.28174 7.82944Z" fill="rgb(245,245,245)" fill-rule="evenodd" />
	</g>
</svg>
