<svg viewBox="0 0 15 15" xmlns="http://www.w3.org/2000/svg" xmlns:xlink="http://www.w3.org/1999/xlink" width="15.000000" height="15.000000" fill="none">
	<rect id="instagram" width="15.000000" height="15.000000" x="0.000000" y="0.000000" fill="rgb(255,255,255)" fill-opacity="0" />
	<g id="Group">
		<g id="Group">
			<path id="Vector" d="M11.8603 2.77539C11.6595 2.77539 11.4961 2.93878 11.4961 3.13955C11.4961 3.34032 11.6595 3.50371 11.8603 3.50371C12.0611 3.50371 12.2244 3.34035 12.2244 3.13955C12.2244 2.93875 12.0611 2.77539 11.8603 2.77539Z" fill="rgb(245,245,245)" fill-rule="evenodd" />
		</g>
	</g>
	<g id="Group">
		<g id="Group">
			<path id="Vector" d="M7.49988 4.27148C5.71975 4.27148 4.27148 5.71975 4.27148 7.49988C4.27148 9.28002 5.71975 10.7283 7.49988 10.7283C9.28005 10.7283 10.7283 9.28005 10.7283 7.49991C10.7283 5.71978 9.28005 4.27148 7.49988 4.27148Z" fill="rgb(245,245,245)" fill-rule="evenodd" />
		</g>
	</g>
	<g id="Group">
		<g id="Group">
			<path id="Vector" d="M10.888 0L4.11202 0C1.84465 0 0 1.84465 0 4.11205L0 10.888C0 13.1554 1.84465 15 4.11202 15L10.888 15C13.1554 15 15 13.1554 15 10.888L15 4.11205C15 1.84465 13.1554 0 10.888 0ZM7.5 11.6142C5.2314 11.6142 3.38581 9.7686 3.38581 7.5C3.38581 5.2314 5.23143 3.38584 7.5 3.38584C9.76857 3.38584 11.6142 5.23143 11.6142 7.5C11.6142 9.76857 9.76857 11.6142 7.5 11.6142ZM11.8603 4.38973C11.171 4.38973 10.6103 3.82898 10.6103 3.13975C10.6103 2.45051 11.171 1.88974 11.8603 1.88974C12.5495 1.88974 13.1103 2.45048 13.1103 3.13972C13.1103 3.82896 12.5495 4.38973 11.8603 4.38973Z" fill="rgb(245,245,245)" fill-rule="evenodd" />
		</g>
	</g>
</svg>
