<svg viewBox="0 0 15 15.0728" xmlns="http://www.w3.org/2000/svg" xmlns:xlink="http://www.w3.org/1999/xlink" width="15.000000" height="15.072754" fill="none" customFrame="#000000">
	<path id="path64" d="M7.49997 15.0725C3.35787 15.0725 0 11.6984 0 7.53627C0 4.34352 1.97686 1.61416 4.76679 0.516082C4.70125 1.11235 4.64199 2.02937 4.79279 2.68031C4.92909 3.26849 5.67225 6.42633 5.67225 6.42633C5.67225 6.42633 5.44792 6.87779 5.44792 7.54523C5.44792 8.59315 6.05238 9.37549 6.80501 9.37549C7.44488 9.37549 7.75394 8.89277 7.75394 8.31392C7.75394 7.6673 7.34424 6.70056 7.13282 5.80467C6.95612 5.05458 7.50716 4.44286 8.24344 4.44286C9.57643 4.44286 10.6011 5.8552 10.6011 7.8939C10.6011 9.69834 9.31078 10.9599 7.46831 10.9599C5.3343 10.9599 4.08173 9.35158 4.08173 7.68942C4.08173 7.04169 4.33004 6.34713 4.6399 5.96955C4.70119 5.89493 4.71017 5.82957 4.69191 5.75339C4.63498 5.51537 4.50845 5.00349 4.48362 4.89871C4.45091 4.76077 4.37492 4.73148 4.23278 4.79796C3.29608 5.23608 2.71043 6.61222 2.71043 7.71753C2.71043 10.0948 4.42939 12.2781 7.66596 12.2781C10.2677 12.2781 12.2896 10.4151 12.2896 7.92547C12.2896 5.32818 10.6598 3.23791 8.39775 3.23791C7.63774 3.23791 6.92329 3.63464 6.67873 4.10327C6.67873 4.10327 6.30266 2.66437 6.21149 2.31175C6.04217 1.65716 5.58508 0.836642 5.27934 0.336065C5.98106 0.117746 6.72681 0 7.49997 0C11.6421 0 15 3.37412 15 7.53627C15 11.6984 11.6421 15.0725 7.49997 15.0725Z" fill="rgb(245,245,245)" fill-rule="nonzero" transform="matrix(1,0,0,-1,0,15.0728)" />
</svg>
